<mxfile host="app.diagrams.net" agent="Mozilla/5.0 (Windows NT 10.0; Win64; x64) AppleWebKit/537.36 (KHTML, like Gecko) Chrome/138.0.0.0 Safari/537.36" version="27.1.6">
  <diagram name="Page-1" id="WKCeRYK-1jBpdLR3Rnv2">
    <mxGraphModel dx="1470" dy="776" grid="1" gridSize="10" guides="1" tooltips="1" connect="1" arrows="1" fold="1" page="1" pageScale="1" pageWidth="850" pageHeight="1100" math="0" shadow="0">
      <root>
        <mxCell id="0" />
        <mxCell id="1" parent="0" />
        <mxCell id="9WJGTT4vLPned5-yAYrh-5" value="" style="edgeStyle=orthogonalEdgeStyle;rounded=0;orthogonalLoop=1;jettySize=auto;html=1;" parent="1" source="9WJGTT4vLPned5-yAYrh-1" target="9WJGTT4vLPned5-yAYrh-4" edge="1">
          <mxGeometry relative="1" as="geometry" />
        </mxCell>
        <mxCell id="9WJGTT4vLPned5-yAYrh-1" value="START" style="ellipse;whiteSpace=wrap;html=1;" parent="1" vertex="1">
          <mxGeometry x="320" y="280" width="120" height="80" as="geometry" />
        </mxCell>
        <mxCell id="9WJGTT4vLPned5-yAYrh-7" value="" style="edgeStyle=orthogonalEdgeStyle;rounded=0;orthogonalLoop=1;jettySize=auto;html=1;" parent="1" source="9WJGTT4vLPned5-yAYrh-4" target="9WJGTT4vLPned5-yAYrh-6" edge="1">
          <mxGeometry relative="1" as="geometry" />
        </mxCell>
        <mxCell id="9WJGTT4vLPned5-yAYrh-4" value="Initialize 5 integers " style="ellipse;whiteSpace=wrap;html=1;" parent="1" vertex="1">
          <mxGeometry x="160" y="450" width="80" height="80" as="geometry" />
        </mxCell>
        <mxCell id="9WJGTT4vLPned5-yAYrh-9" value="" style="edgeStyle=orthogonalEdgeStyle;rounded=0;orthogonalLoop=1;jettySize=auto;html=1;" parent="1" source="9WJGTT4vLPned5-yAYrh-6" target="9WJGTT4vLPned5-yAYrh-8" edge="1">
          <mxGeometry relative="1" as="geometry" />
        </mxCell>
        <mxCell id="9WJGTT4vLPned5-yAYrh-6" value="&lt;div&gt;Declare uninitialized &#39;largest&lt;/div&gt;" style="ellipse;whiteSpace=wrap;html=1;" parent="1" vertex="1">
          <mxGeometry x="350" y="530" width="80" height="80" as="geometry" />
        </mxCell>
        <mxCell id="9WJGTT4vLPned5-yAYrh-11" value="" style="edgeStyle=orthogonalEdgeStyle;rounded=0;orthogonalLoop=1;jettySize=auto;html=1;" parent="1" source="9WJGTT4vLPned5-yAYrh-8" target="9WJGTT4vLPned5-yAYrh-10" edge="1">
          <mxGeometry relative="1" as="geometry" />
        </mxCell>
        <mxCell id="9WJGTT4vLPned5-yAYrh-8" value="Load num1 → register" style="ellipse;whiteSpace=wrap;html=1;" parent="1" vertex="1">
          <mxGeometry x="160" y="650" width="80" height="80" as="geometry" />
        </mxCell>
        <mxCell id="9WJGTT4vLPned5-yAYrh-13" value="" style="edgeStyle=orthogonalEdgeStyle;rounded=0;orthogonalLoop=1;jettySize=auto;html=1;" parent="1" source="9WJGTT4vLPned5-yAYrh-10" target="9WJGTT4vLPned5-yAYrh-12" edge="1">
          <mxGeometry relative="1" as="geometry" />
        </mxCell>
        <mxCell id="9WJGTT4vLPned5-yAYrh-10" value="Compare with num2-num5" style="ellipse;whiteSpace=wrap;html=1;" parent="1" vertex="1">
          <mxGeometry x="310" y="870" width="80" height="80" as="geometry" />
        </mxCell>
        <mxCell id="9WJGTT4vLPned5-yAYrh-12" value="Store final result" style="ellipse;whiteSpace=wrap;html=1;" parent="1" vertex="1">
          <mxGeometry x="550" y="690" width="80" height="80" as="geometry" />
        </mxCell>
        <mxCell id="9WJGTT4vLPned5-yAYrh-14" value="END" style="ellipse;whiteSpace=wrap;html=1;" parent="1" vertex="1">
          <mxGeometry x="670" y="340" width="120" height="80" as="geometry" />
        </mxCell>
        <mxCell id="9WJGTT4vLPned5-yAYrh-20" value="&lt;h3 class=&quot;text-lg font-bold text-text-100 mt-1 -mb-1.5&quot;&gt;&lt;p class=&quot;whitespace-normal break-words&quot;&gt;&lt;strong&gt;Challenges:&lt;/strong&gt;&lt;/p&gt;&lt;ul class=&quot;[&amp;amp;:not(:last-child)_ul]:pb-1 [&amp;amp;:not(:last-child)_ol]:pb-1 list-disc space-y-1.5 pl-7&quot;&gt;&lt;li class=&quot;whitespace-normal break-words&quot;&gt;&lt;font style=&quot;font-size: 12px;&quot;&gt;Debugging infinite loops during testing&lt;/font&gt;&lt;/li&gt;&lt;li class=&quot;whitespace-normal break-words&quot;&gt;&lt;span style=&quot;font-size: 12px; background-color: transparent; color: light-dark(rgb(0, 0, 0), rgb(255, 255, 255)); font-weight: normal;&quot;&gt;Setting up proper loop structure for even numbers&lt;/span&gt;&lt;/li&gt;&lt;li class=&quot;whitespace-normal break-words&quot;&gt;&lt;span style=&quot;background-color: transparent; color: light-dark(rgb(0, 0, 0), rgb(255, 255, 255)); font-weight: normal;&quot;&gt;&lt;font style=&quot;font-size: 12px;&quot;&gt;Managing register allocation efficiently&lt;/font&gt;&lt;/span&gt;&lt;/li&gt;&lt;/ul&gt;&lt;/h3&gt;" style="text;html=1;align=center;verticalAlign=middle;resizable=0;points=[];autosize=1;strokeColor=none;fillColor=none;" parent="1" vertex="1">
          <mxGeometry x="660" y="820" width="330" height="120" as="geometry" />
        </mxCell>
        <mxCell id="-OJZw667bfTz37DIvUch-3" value="" style="edgeStyle=orthogonalEdgeStyle;rounded=0;orthogonalLoop=1;jettySize=auto;html=1;" edge="1" parent="1" source="9WJGTT4vLPned5-yAYrh-12" target="-OJZw667bfTz37DIvUch-2">
          <mxGeometry relative="1" as="geometry">
            <mxPoint x="590" y="690" as="sourcePoint" />
            <mxPoint x="550" y="490" as="targetPoint" />
          </mxGeometry>
        </mxCell>
        <mxCell id="-OJZw667bfTz37DIvUch-6" value="" style="edgeStyle=orthogonalEdgeStyle;rounded=0;orthogonalLoop=1;jettySize=auto;html=1;" edge="1" parent="1" source="-OJZw667bfTz37DIvUch-2" target="-OJZw667bfTz37DIvUch-5">
          <mxGeometry relative="1" as="geometry" />
        </mxCell>
        <mxCell id="-OJZw667bfTz37DIvUch-2" value="Counter =0" style="ellipse;whiteSpace=wrap;html=1;aspect=fixed;" vertex="1" parent="1">
          <mxGeometry x="510" y="520" width="80" height="80" as="geometry" />
        </mxCell>
        <mxCell id="-OJZw667bfTz37DIvUch-8" value="" style="edgeStyle=orthogonalEdgeStyle;rounded=0;orthogonalLoop=1;jettySize=auto;html=1;" edge="1" parent="1" source="-OJZw667bfTz37DIvUch-5">
          <mxGeometry relative="1" as="geometry">
            <mxPoint x="730" y="410" as="targetPoint" />
          </mxGeometry>
        </mxCell>
        <mxCell id="-OJZw667bfTz37DIvUch-5" value="while counter ≤ 20: print counter, add 2" style="ellipse;whiteSpace=wrap;html=1;aspect=fixed;" vertex="1" parent="1">
          <mxGeometry x="670" y="520" width="120" height="120" as="geometry" />
        </mxCell>
      </root>
    </mxGraphModel>
  </diagram>
</mxfile>
